<svg width="164" height="164" viewBox="0 0 164 164" fill="none" xmlns="http://www.w3.org/2000/svg">
<g clip-path="url(#clip0)">
<path d="M67.9531 82.2812C67.9531 88.9375 66.7188 94.8281 64.25 99.9531C61.7812 105.078 58.2656 109.031 53.7031 111.812C49.1719 114.562 44 115.938 38.1875 115.938C32.375 115.938 27.2188 114.609 22.7188 111.953C18.2188 109.266 14.7031 105.438 12.1719 100.469C9.67188 95.5 8.35938 89.7969 8.23438 83.3594V79.5156C8.23438 72.8281 9.45312 66.9375 11.8906 61.8438C14.3594 56.7188 17.875 52.7656 22.4375 49.9844C27.0312 47.2031 32.25 45.8125 38.0938 45.8125C43.875 45.8125 49.0312 47.1875 53.5625 49.9375C58.0938 52.6875 61.6094 56.6094 64.1094 61.7031C66.6406 66.7656 67.9219 72.5781 67.9531 79.1406V82.2812ZM51.2188 79.4219C51.2188 72.6406 50.0781 67.5 47.7969 64C45.5469 60.4688 42.3125 58.7031 38.0938 58.7031C29.8438 58.7031 25.4844 64.8906 25.0156 77.2656L24.9688 82.2812C24.9688 88.9688 26.0781 94.1094 28.2969 97.7031C30.5156 101.297 33.8125 103.094 38.1875 103.094C42.3438 103.094 45.5469 101.328 47.7969 97.7969C50.0469 94.2656 51.1875 89.1875 51.2188 82.5625V79.4219ZM72.2506 91.8438V115H55.7975V46.75H83.0319C88.2506 46.75 92.86 47.7188 96.86 49.6562C100.891 51.5625 104.001 54.2969 106.188 57.8594C108.407 61.3906 109.516 65.4062 109.516 69.9062C109.516 76.5625 107.126 81.8906 102.344 85.8906C97.5944 89.8594 91.0631 91.8438 82.7506 91.8438H72.2506ZM72.2506 79.1406H83.0319C86.2194 79.1406 88.6413 78.3438 90.2975 76.75C91.985 75.1562 92.8288 72.9062 92.8288 70C92.8288 66.8125 91.9694 64.2656 90.2506 62.3594C88.5319 60.4531 86.1881 59.4844 83.2194 59.4531H72.2506V79.1406ZM132.892 96.8594C132.892 94.4531 132.033 92.5781 130.314 91.2344C128.626 89.8906 125.642 88.5 121.361 87.0625C117.079 85.625 113.579 84.2344 110.861 82.8906C102.017 78.5469 97.595 72.5781 97.595 64.9844C97.595 61.2031 98.6888 57.875 100.876 55C103.095 52.0938 106.22 49.8438 110.251 48.25C114.283 46.625 118.814 45.8125 123.845 45.8125C128.751 45.8125 133.142 46.6875 137.017 48.4375C140.923 50.1875 143.954 52.6875 146.111 55.9375C148.267 59.1562 149.345 62.8438 149.345 67H132.939C132.939 64.2188 132.079 62.0625 130.361 60.5312C128.673 59 126.376 58.2344 123.47 58.2344C120.533 58.2344 118.204 58.8906 116.486 60.2031C114.798 61.4844 113.954 63.125 113.954 65.125C113.954 66.875 114.892 68.4688 116.767 69.9062C118.642 71.3125 121.939 72.7812 126.658 74.3125C131.376 75.8125 135.251 77.4375 138.283 79.1875C145.658 83.4375 149.345 89.2969 149.345 96.7656C149.345 102.734 147.095 107.422 142.595 110.828C138.095 114.234 131.923 115.938 124.079 115.938C118.548 115.938 113.533 114.953 109.033 112.984C104.564 110.984 101.189 108.266 98.9075 104.828C96.6575 101.359 95.5325 97.375 95.5325 92.875H112.033C112.033 96.5312 112.97 99.2344 114.845 100.984C116.751 102.703 119.829 103.562 124.079 103.562C126.798 103.562 128.939 102.984 130.501 101.828C132.095 100.641 132.892 98.9844 132.892 96.8594Z" fill="#A05858"/>
</g>
<defs>
<clipPath id="clip0">
<rect width="164" height="164" fill="white"/>
</clipPath>
</defs>
</svg>
